<!DOCTYPE svg PUBLIC "-//W3C//DTD SVG 20010904//EN"
 "http://www.w3.org/TR/2001/REC-SVG-20010904/DTD/svg10.dtd">
<svg version="1.0" xmlns="http://www.w3.org/2000/svg"
 width="4rem" height="4rem" viewBox="0 0 744.000000 744.000000"
 preserveAspectRatio="xMidYMid meet">

<g transform="translate(0.000000,744.000000) scale(0.100000,-0.100000)"
fill="#336799" stroke="none">
<path d="M3445 7424 c-16 -2 -79 -9 -140 -15 -650 -64 -1329 -340 -1865 -758
-805 -627 -1307 -1536 -1416 -2564 -20 -195 -15 -660 10 -842 86 -621 307
-1183 658 -1678 483 -680 1188 -1181 1991 -1416 667 -195 1407 -195 2074 0
771 225 1447 691 1927 1329 413 548 658 1171 731 1857 21 196 21 570 0 766
-175 1641 -1387 2957 -3007 3266 -221 42 -345 53 -643 56 -159 2 -303 1 -320
-1z m685 -128 c775 -94 1468 -412 2025 -929 464 -431 787 -929 980 -1512 119
-357 170 -652 182 -1035 17 -584 -99 -1130 -349 -1650 -188 -391 -400 -692
-703 -995 -580 -581 -1313 -935 -2150 -1037 -147 -17 -643 -17 -790 0 -696 85
-1311 340 -1850 767 -695 552 -1172 1369 -1309 2247 -148 943 81 1912 630
2664 127 175 194 253 339 403 292 301 602 530 963 713 416 210 876 339 1347
378 150 12 533 4 685 -14z"/>
<path d="M3450 7274 c-19 -2 -80 -9 -135 -15 -298 -32 -628 -115 -920 -231
-685 -272 -1289 -776 -1688 -1406 -242 -382 -409 -808 -492 -1258 -75 -405
-75 -884 1 -1292 233 -1264 1132 -2309 2342 -2723 388 -133 750 -192 1167
-192 241 1 361 10 595 49 1385 229 2512 1273 2859 2649 109 435 133 942 66
1397 -211 1414 -1266 2575 -2655 2923 -304 76 -469 96 -820 100 -157 2 -301 1
-320 -1z m217 -259 c21 -41 40 -75 43 -75 4 0 20 33 36 73 29 68 32 72 65 74
19 1 28 0 22 -3 -9 -4 -13 -34 -13 -100 0 -83 2 -94 18 -95 14 0 14 -2 -3 -9
-28 -12 -75 -12 -75 0 0 6 5 10 10 10 6 0 10 30 9 73 l0 72 -25 -55 c-13 -30
-30 -68 -38 -85 l-13 -30 -41 80 -41 80 -1 -67 c0 -54 3 -69 18 -77 13 -8 7
-10 -28 -10 -25 1 -37 3 -27 6 15 4 17 17 17 94 0 70 -3 91 -15 95 -25 10 -17
24 15 24 28 0 33 -7 67 -75z m-226 56 c-10 -7 -12 -23 -7 -67 12 -103 18 -124
33 -124 8 0 11 -4 8 -10 -3 -5 -25 -10 -48 -9 -23 0 -36 3 -29 6 13 5 17 79 4
87 -4 2 -26 2 -49 -1 -41 -5 -41 -6 -36 -42 3 -20 12 -41 19 -47 12 -10 10
-13 -8 -18 -13 -3 -34 -6 -47 -6 -22 0 -23 2 -9 13 13 10 14 23 6 92 -6 46
-16 85 -24 91 -23 18 -16 24 29 24 28 0 37 -3 28 -9 -10 -6 -12 -19 -7 -45 7
-34 9 -36 46 -36 21 0 42 5 45 11 13 19 -5 79 -23 80 -24 1 26 17 58 18 18 0
21 -2 11 -8z m584 -91 c15 -47 34 -95 41 -107 14 -22 13 -23 -26 -23 -37 0
-55 13 -29 22 6 2 8 14 4 31 -6 24 -12 27 -50 27 -35 0 -45 -4 -50 -20 -4 -12
-1 -27 5 -35 10 -12 8 -15 -11 -15 -24 0 -65 20 -42 20 6 0 35 45 64 100 29
55 56 96 60 92 4 -4 19 -45 34 -92z m147 81 c19 -7 27 -24 42 -85 11 -42 23
-76 27 -76 4 0 26 29 50 65 44 65 66 77 99 55 13 -8 13 -10 -2 -10 -10 0 -19
-11 -22 -27 -28 -144 -29 -155 -15 -164 11 -7 9 -8 -6 -8 -30 2 -82 16 -63 18
10 0 20 11 23 24 9 37 23 122 21 124 -1 1 -23 -29 -49 -68 -27 -38 -52 -69
-57 -69 -4 0 -16 34 -26 75 -10 41 -21 75 -24 75 -4 0 -12 -27 -17 -60 -8 -49
-7 -62 6 -75 15 -15 13 -16 -14 -10 -56 12 -62 16 -39 25 16 6 23 23 33 89 11
65 11 84 1 96 -14 17 -3 19 32 6z m-965 -23 c-16 -12 -16 -19 -1 -100 11 -61
21 -88 30 -88 8 0 14 -4 14 -10 0 -5 -10 -10 -22 -10 -13 0 -34 -3 -48 -5 -14
-3 -19 -3 -12 1 6 3 12 17 12 31 0 51 -24 155 -37 160 -23 9 -14 22 20 26 63
8 62 8 44 -5z m-177 -33 c-8 -9 -10 -28 -6 -51 7 -33 9 -35 36 -29 33 7 65 -7
80 -36 25 -45 -14 -78 -110 -94 -40 -7 -43 -6 -31 9 11 13 11 28 1 83 -17 96
-19 103 -38 103 -26 0 0 18 33 23 17 2 34 5 39 6 5 0 3 -6 -4 -14z m1520 -16
c55 -11 90 -29 57 -29 -10 0 -19 -11 -23 -27 -3 -16 -13 -55 -21 -88 -14 -55
-13 -60 3 -72 22 -16 15 -16 -44 -1 -35 9 -42 13 -26 18 14 5 24 28 40 91 20
84 20 84 0 92 -32 12 -42 2 -54 -55 -17 -74 -45 -118 -76 -118 -29 0 -43 17
-28 32 8 8 15 8 26 -1 20 -17 39 14 60 94 15 56 14 61 -2 74 -15 12 -15 13 8
8 14 -4 50 -11 80 -18z m-1642 -26 c40 -34 32 -79 -16 -101 -37 -17 -38 -18
-29 -54 5 -21 16 -38 25 -40 9 -2 -23 -15 -71 -29 -77 -24 -87 -25 -82 -9 3 9
-3 24 -13 33 -15 14 -24 15 -55 5 -31 -10 -37 -16 -37 -40 0 -20 5 -28 17 -28
25 0 4 -17 -32 -26 -26 -6 -28 -5 -18 7 7 9 15 58 19 111 6 86 16 132 26 118
2 -3 34 -40 72 -82 47 -54 75 -78 90 -78 13 0 25 3 28 6 5 5 -12 81 -38 167
-3 9 -13 17 -21 17 -27 0 -8 11 44 25 64 18 68 18 91 -2z m1825 -25 c73 -24
85 -35 68 -65 -10 -17 -10 -16 -11 4 0 16 -10 25 -36 33 -39 13 -49 8 -59 -31
-6 -23 -2 -28 23 -37 22 -7 33 -7 42 1 10 10 11 6 6 -18 -9 -38 -26 -57 -26
-28 0 14 -8 23 -26 27 -32 8 -42 1 -50 -42 -6 -28 -3 -33 22 -42 28 -11 38
-10 79 5 19 7 19 6 -2 -15 l-22 -24 -78 25 c-42 13 -70 25 -61 27 11 2 26 30
42 80 29 87 32 108 14 115 -36 15 14 4 75 -15z m193 -76 c-16 -3 -46 -50 -46
-72 0 -20 37 -9 65 20 31 32 72 40 82 15 8 -23 -5 -31 -26 -18 -15 10 -22 8
-36 -7 -10 -11 -26 -22 -35 -25 -17 -5 -17 -8 0 -66 36 -118 62 -119 113 -7
30 66 35 84 24 96 -14 17 -16 18 76 -22 67 -29 75 -38 57 -66 -8 -13 -10 -12
-10 3 0 14 -52 57 -71 57 -3 0 -13 -16 -22 -35 -16 -33 -16 -35 4 -46 12 -6
32 -8 45 -5 23 6 23 5 12 -21 -17 -40 -28 -50 -28 -27 0 17 -34 44 -55 44 -6
0 -36 -72 -33 -75 2 -1 18 -10 36 -19 25 -13 37 -14 53 -5 28 15 33 6 9 -16
-19 -17 -22 -17 -92 16 -40 18 -87 40 -104 47 -25 12 -33 24 -45 70 -8 31 -19
57 -25 59 -6 2 -16 -13 -22 -34 -7 -24 -8 -39 -2 -41 6 -2 10 -7 10 -12 0 -5
-18 -1 -41 8 -30 12 -37 18 -25 24 20 11 81 171 67 176 -6 2 -11 8 -11 12 0 5
21 1 46 -8 26 -9 39 -18 30 -20z m-2436 -17 c-10 -12 -6 -29 21 -91 21 -47 41
-79 54 -84 18 -6 17 -9 -12 -24 -39 -20 -60 -21 -46 -3 7 8 5 24 -6 48 l-16
36 -43 -18 c-41 -18 -42 -19 -30 -46 18 -41 30 -55 45 -49 28 11 11 -5 -27
-24 -47 -24 -57 -25 -40 -5 17 21 -50 168 -81 175 -19 5 -17 7 15 23 44 21 63
22 48 5 -12 -15 10 -78 27 -78 6 0 26 7 45 17 l35 16 -20 38 c-13 26 -24 37
-34 33 -30 -12 -14 6 23 25 45 24 59 26 42 6z m1430 -135 c328 -23 632 -94
931 -215 972 -396 1673 -1284 1833 -2320 153 -994 -212 -2019 -955 -2681 -694
-619 -1593 -882 -2499 -733 -903 149 -1696 711 -2140 1519 -515 935 -486 2089
75 3007 235 383 608 756 990 988 536 326 1151 478 1765 435z m1483 -70 c11
-10 -1 -50 -13 -50 -5 0 -7 6 -4 14 5 13 -20 46 -35 46 -13 0 -93 -151 -87
-165 4 -12 -4 -10 -34 5 -42 21 -51 33 -23 28 11 -2 30 19 59 67 23 39 43 75
43 82 1 17 -38 26 -54 13 -18 -15 -19 -6 -4 21 10 19 12 19 77 -17 37 -20 71
-40 75 -44z m-3188 18 c-7 -29 48 -118 73 -118 11 0 6 -7 -16 -20 -40 -25 -51
-25 -45 -2 7 28 -45 112 -70 112 -18 1 -14 5 18 25 49 30 47 30 40 3z m3303
-90 c37 -23 68 -43 70 -44 2 -1 -2 -13 -9 -26 -12 -22 -13 -22 -17 -3 -5 24
-21 45 -33 45 -5 0 -30 -32 -55 -70 -31 -49 -43 -76 -39 -90 6 -20 6 -20 -29
1 -41 24 -54 39 -29 33 13 -4 30 15 66 72 52 82 51 100 -5 90 -26 -5 -27 -4
-16 14 7 11 16 20 21 20 4 0 38 -19 75 -42z m-3434 18 c-3 -8 -1 -24 6 -35 10
-20 12 -20 42 -5 54 28 101 -13 66 -58 -19 -23 -101 -72 -95 -56 7 19 -52 126
-72 130 -12 3 -8 8 14 21 37 20 46 21 39 3z m-76 -48 c18 -18 14 -26 -10 -21
-13 2 -31 -2 -41 -9 -16 -12 -15 -17 18 -65 20 -29 43 -53 53 -53 10 0 3 -9
-20 -25 -41 -28 -56 -32 -39 -11 10 12 5 26 -24 71 -24 38 -41 55 -50 51 -30
-11 -14 5 38 39 60 39 59 39 75 23z m3675 -77 c10 -12 9 -14 -4 -9 -18 7 -38
-12 -79 -71 -21 -30 -21 -33 -4 -28 10 3 45 13 77 22 50 14 58 20 54 36 -5 20
-5 20 26 0 33 -21 49 -45 24 -35 -20 7 -120 -123 -114 -148 7 -25 -2 -22 -43
12 -26 22 -30 28 -14 24 16 -4 29 5 57 43 19 26 34 50 32 52 -6 6 -135 -31
-141 -41 -3 -5 0 -16 8 -25 12 -14 11 -15 -7 -5 -34 19 -72 55 -52 48 23 -7
119 119 113 151 -3 22 -3 22 26 5 16 -9 35 -23 41 -31z m-3811 -39 c12 -15 31
-39 40 -52 15 -21 19 -23 27 -10 9 12 11 11 11 -6 0 -24 -24 -49 -38 -40 -5 3
-14 -6 -20 -19 -19 -42 -82 -28 -82 18 0 11 9 34 20 52 18 29 18 34 5 45 -25
21 -46 5 -38 -31 5 -25 3 -31 -8 -27 -26 9 -22 54 7 77 35 28 48 27 76 -7z
m-146 -68 c-8 -20 61 -114 84 -114 16 0 40 -18 40 -30 0 -4 -13 -5 -29 -2 -37
5 -101 -48 -101 -85 0 -22 -2 -24 -16 -12 -10 8 -14 22 -11 38 9 47 -40 135
-69 124 -27 -10 -13 6 44 51 64 51 67 53 58 30z m4164 -61 c0 -2 -8 -2 -18 1
-12 4 -28 -4 -47 -24 -25 -27 -26 -30 -10 -36 10 -4 32 -2 49 5 54 22 66 24
81 11 18 -15 20 -40 4 -40 -7 0 -17 7 -23 15 -10 14 -16 14 -53 -2 -40 -18
-42 -19 -45 -71 -2 -29 0 -63 5 -74 7 -20 6 -20 -15 -5 -21 13 -23 22 -20 81
2 36 -1 66 -6 66 -17 0 -54 -49 -49 -64 10 -25 -7 -19 -39 15 -16 16 -22 28
-13 24 23 -9 133 118 126 145 -4 17 1 15 34 -11 21 -17 39 -33 39 -36z m-4315
-63 c-9 -14 76 -112 92 -106 19 8 16 -8 -4 -26 -29 -24 -43 -30 -38 -16 2 7
-5 24 -16 37 l-20 24 -22 -21 c-26 -26 -15 -53 23 -62 l24 -6 -29 -22 -28 -22
-14 27 c-23 45 -73 92 -92 86 -9 -4 -4 7 13 25 32 34 49 41 39 17 -3 -9 3 -25
12 -36 18 -19 19 -19 42 3 21 20 22 23 6 40 -9 10 -23 18 -31 18 -12 0 -10 6
8 25 23 24 47 35 35 15z m4513 -111 c17 -20 19 -29 10 -29 -13 0 -55 -107 -46
-115 8 -7 109 46 103 55 -10 16 6 12 27 -7 21 -18 24 -37 6 -30 -7 2 -50 -9
-95 -24 -92 -33 -135 -36 -153 -14 -10 13 -11 18 -1 28 10 9 15 8 25 -5 26
-35 42 -21 65 55 11 39 21 82 21 95 0 29 10 27 38 -9z m-4622 -92 c23 -20 47
-37 53 -37 8 0 4 -12 -9 -30 -24 -34 -41 -39 -33 -12 6 26 -79 104 -104 95
-12 -4 -8 4 12 26 27 29 31 30 35 14 3 -11 24 -36 46 -56z m-145 -41 c-10 -12
-8 -19 9 -36 22 -22 22 -22 43 -2 34 30 45 34 67 22 32 -17 25 -56 -20 -103
-24 -26 -40 -36 -40 -27 0 25 -86 104 -105 97 -10 -4 -5 6 12 28 16 19 32 35
37 35 5 0 3 -6 -3 -14z m4938 -55 l20 -28 -22 4 c-15 3 -30 -4 -47 -22 l-24
-26 31 -31 31 -31 31 23 c25 17 30 27 25 43 -4 17 1 14 25 -13 31 -35 42 -62
18 -42 -10 9 -29 -2 -80 -45 -37 -31 -67 -61 -67 -67 0 -16 21 -36 37 -36 26
0 143 93 143 114 0 15 6 11 29 -20 29 -38 33 -57 9 -36 -10 8 -27 1 -66 -27
l-53 -38 71 -7 c81 -7 93 -3 85 27 -6 21 -5 20 15 -3 35 -43 42 -59 22 -54
-25 7 -151 -86 -152 -111 -1 -17 -4 -16 -25 10 -26 31 -33 51 -14 39 9 -5 119
61 119 72 0 2 -37 4 -81 4 -79 0 -81 -1 -76 -22 6 -22 5 -22 -14 2 -11 14 -30
36 -42 50 -72 83 -72 83 -51 77 12 -4 30 3 48 17 31 26 28 43 -13 80 -21 19
-22 19 -51 -9 -19 -18 -28 -35 -25 -45 4 -8 -8 -2 -24 14 -33 32 -40 49 -16
40 20 -8 144 95 144 119 1 22 14 15 40 -22z m-4998 -41 c-14 -3 -26 -10 -28
-16 -6 -18 77 -86 98 -81 27 7 23 -5 -13 -39 -18 -17 -29 -22 -25 -12 4 11
-10 29 -44 58 -51 43 -74 44 -66 4 5 -28 -8 -32 -22 -7 -7 13 1 29 36 70 41
47 47 51 67 41 l21 -12 -24 -6z m-64 -155 c35 -27 49 -32 55 -23 6 8 8 2 6
-17 -2 -19 -9 -30 -18 -30 -8 0 -17 -11 -20 -24 -7 -33 -35 -49 -57 -35 -14 9
-18 25 -18 70 0 54 -2 59 -22 62 -17 3 -23 -2 -23 -17 0 -11 5 -23 10 -26 17
-10 11 -25 -9 -25 -35 0 -36 44 -3 83 22 26 48 21 99 -18z m5361 -196 c18 -27
35 -61 38 -74 9 -36 -12 -65 -46 -65 -23 0 -30 -5 -30 -20 0 -26 -39 -51 -68
-43 -19 5 -69 66 -107 133 -8 13 -6 13 8 2 14 -12 26 -8 92 33 50 32 75 53 75
66 0 10 2 19 4 19 1 0 17 -23 34 -51z m-5543 -6 c8 -15 15 -19 27 -12 11 6 23
3 39 -10 23 -18 23 -19 6 -57 -24 -51 -56 -94 -57 -74 0 19 -105 84 -119 75
-27 -16 0 36 43 83 24 27 46 25 61 -5z m-50 -157 c57 -57 34 -128 -43 -134
-53 -4 -92 30 -92 79 0 72 84 106 135 55z m5725 -61 c34 -64 34 -67 16 -80
-23 -17 -34 -12 -17 9 9 11 8 22 -5 49 l-17 35 -33 -16 c-19 -9 -34 -21 -34
-27 0 -18 24 -43 45 -47 17 -3 16 -6 -12 -21 -41 -22 -41 -21 -36 6 2 12 -2
30 -10 41 -13 17 -15 17 -45 2 -18 -9 -32 -21 -32 -27 0 -24 32 -69 50 -69 10
0 22 -4 25 -10 4 -6 -7 -10 -24 -10 -28 0 -34 6 -66 70 -39 76 -42 88 -21 71
20 -17 181 63 172 85 -14 35 12 0 44 -61z m-5867 -47 l22 -12 -24 -6 c-14 -3
-26 -11 -28 -17 -6 -17 94 -65 118 -58 20 7 20 5 -3 -37 -18 -34 -23 -39 -26
-22 -2 13 -22 29 -58 47 -30 15 -57 27 -60 27 -4 0 -4 -13 -2 -30 5 -32 -1
-37 -19 -19 -9 9 -3 28 20 75 17 35 33 64 35 64 2 0 13 -5 25 -12z m5947 -104
c28 -64 26 -100 -5 -120 -33 -22 -72 -6 -88 35 l-11 29 -39 -19 c-25 -13 -37
-25 -33 -35 11 -29 -4 -13 -24 26 -24 48 -25 53 -2 39 13 -8 34 -3 95 26 45
21 77 42 77 50 0 27 10 16 30 -31z m-5976 -79 c50 -22 56 -23 57 -7 0 13 3 11
12 -7 9 -19 8 -26 -6 -36 -9 -7 -17 -23 -17 -37 0 -45 -38 -62 -72 -31 -12 11
-18 30 -18 60 0 39 -2 43 -25 43 -18 0 -25 -5 -25 -19 0 -10 7 -21 15 -25 22
-8 18 -26 -5 -26 -37 0 -34 77 4 102 16 11 18 10 80 -17z m6022 -100 c34 -14
53 -43 67 -106 5 -21 2 -28 -19 -37 -35 -17 -37 -15 -20 10 53 75 -36 140
-121 88 -62 -37 -66 -96 -9 -131 18 -11 24 -19 15 -19 -29 0 -68 40 -75 77 -9
47 15 95 58 116 41 21 59 21 104 2z m-6090 -54 c38 -15 54 -17 63 -8 8 8 11 7
11 -3 -1 -23 -28 -78 -29 -58 -1 9 -13 21 -28 26 -16 5 -37 13 -48 17 -13 5
-5 -8 23 -36 23 -25 42 -48 42 -52 0 -4 -28 -7 -62 -8 l-63 0 44 -20 c33 -15
47 -17 57 -8 17 14 17 9 4 -27 -9 -24 -12 -25 -23 -11 -7 9 -36 25 -66 37 -43
17 -56 18 -62 8 -7 -10 -9 -9 -9 4 0 40 11 48 64 48 29 0 56 3 60 7 3 4 -12
26 -35 49 -36 37 -40 44 -29 64 10 19 13 20 23 6 7 -8 35 -24 63 -35z m6197
-148 c3 -16 9 -37 13 -48 7 -18 6 -19 -10 -6 -15 12 -25 12 -69 1 -29 -7 -56
-15 -61 -18 -4 -2 22 -18 59 -33 69 -30 85 -30 85 -1 1 25 16 -4 25 -48 7 -30
6 -33 -7 -22 -23 19 -177 -24 -187 -52 -7 -18 -9 -17 -15 10 -4 16 -9 37 -12
47 -5 15 -3 17 13 7 13 -8 33 -6 78 8 l60 18 -68 27 c-79 32 -87 33 -87 10 0
-31 -18 1 -24 42 -3 22 -3 34 0 28 3 -7 18 -13 32 -12 44 1 157 43 155 57 -2
6 1 12 6 12 5 0 11 -12 14 -27z m-6249 -79 c21 -5 27 -4 22 5 -4 6 -3 11 3 11
17 0 25 -42 10 -54 -8 -6 -13 -24 -11 -43 3 -28 0 -33 -24 -39 -21 -6 -31 -2
-46 16 -10 12 -18 30 -18 40 0 31 -11 50 -30 50 -26 0 -33 -28 -10 -42 23 -14
27 -38 7 -38 -34 0 -48 51 -26 92 11 21 39 21 123 2z m6329 -213 c10 -45 17
-84 15 -85 -1 -2 -14 -7 -28 -11 -20 -6 -23 -5 -12 6 12 13 17 69 6 69 -3 0
-32 -6 -63 -14 -31 -8 -68 -17 -83 -20 -17 -4 -28 -13 -28 -24 -1 -25 -16 4
-24 47 -5 29 -4 32 9 21 12 -10 32 -9 100 6 47 10 85 22 85 27 0 19 -22 47
-38 48 -14 0 -14 2 3 9 11 5 24 7 29 6 5 -1 18 -39 29 -85z m-6405 57 c35 -9
47 -9 50 1 3 9 7 9 18 0 17 -14 18 -35 2 -46 -7 -4 -13 -24 -13 -43 0 -33 -2
-35 -35 -35 -33 0 -36 3 -49 45 -17 53 -30 65 -51 44 -13 -13 -12 -17 10 -34
21 -16 23 -21 12 -32 -20 -20 -54 25 -46 61 13 54 26 58 102 39z m-76 -170
c86 -15 94 -15 106 0 10 13 12 13 12 1 0 -35 -13 -89 -22 -89 -5 0 -7 4 -3 9
7 12 -19 26 -62 34 -35 7 -36 5 -48 -64 l-7 -36 48 -7 c38 -5 49 -3 60 11 12
16 13 14 7 -17 -3 -19 -10 -46 -14 -60 -7 -22 -7 -23 -8 -4 -1 24 -4 25 -120
45 -57 10 -77 10 -93 0 -18 -11 -19 -10 -13 26 10 61 16 71 25 47 6 -14 20
-23 46 -27 42 -7 53 1 55 46 1 15 2 33 3 39 1 7 -17 16 -39 20 -31 5 -43 3
-52 -10 -12 -14 -13 -14 -13 5 0 11 3 35 6 52 6 28 8 30 19 14 9 -12 44 -23
107 -35z m6522 -79 c14 -76 11 -88 -23 -89 -11 0 -11 3 -2 14 7 8 11 30 9 48
-3 30 -6 33 -38 33 -30 0 -35 -3 -38 -27 -2 -18 4 -31 20 -42 21 -15 21 -16 3
-16 -11 0 -31 -3 -45 -6 -24 -5 -24 -5 -7 10 15 11 17 22 12 46 -6 29 -9 30
-43 24 -51 -9 -51 -9 -42 -48 10 -43 18 -56 36 -56 8 0 14 -5 14 -11 0 -6 -7
-8 -16 -5 -9 3 -21 6 -28 6 -7 0 -17 26 -24 64 -14 76 -15 107 -3 88 12 -19
191 14 191 36 0 32 10 3 24 -69z m19 -161 c3 -18 9 -58 12 -89 7 -53 6 -57
-16 -62 -29 -8 -39 1 -16 14 18 10 24 59 7 59 -45 0 -167 -25 -176 -36 -9 -12
-13 -8 -18 17 -3 17 -6 39 -6 47 0 14 1 14 13 0 10 -13 23 -14 92 -6 44 6 84
14 88 18 13 12 -2 50 -19 50 -8 0 -12 5 -9 10 14 23 43 10 48 -22z m-6468 -28
c4 -6 1 -17 -5 -26 -15 -18 -42 0 -33 22 6 16 29 19 38 4z m-175 -69 c0 -5
-11 -12 -24 -15 -28 -7 -51 -55 -42 -91 8 -32 54 -55 111 -57 87 -1 127 58 85
130 l-22 37 29 -28 c23 -23 28 -35 27 -74 -1 -40 -6 -51 -39 -81 -34 -31 -41
-34 -86 -30 -93 9 -142 73 -120 156 6 24 9 48 6 53 -4 5 12 9 34 9 23 0 41 -4
41 -9z m6556 -111 c77 0 94 3 94 15 0 8 5 15 10 15 6 0 10 -21 10 -46 0 -42
-1 -44 -17 -29 -12 13 -26 15 -52 11 -20 -3 -47 -6 -60 -6 l-24 0 24 -18 c99
-75 96 -74 113 -57 15 15 16 13 16 -32 -1 -37 -3 -44 -11 -30 -11 19 -46 21
-136 11 -39 -5 -53 -11 -53 -23 0 -14 -2 -14 -10 -1 -5 8 -10 33 -10 55 1 35
2 38 14 23 10 -14 28 -18 82 -18 l68 0 -62 45 c-69 50 -77 53 -91 28 -8 -14
-10 -5 -10 37 1 30 3 47 6 38 4 -16 17 -18 99 -18z m83 -482 c11 -32 9 -42 -8
-75 -10 -22 -22 -57 -26 -78 l-6 -40 15 30 c21 44 70 93 101 101 17 4 40 1 61
-9 30 -15 34 -21 34 -54 0 -21 -7 -47 -16 -58 -15 -20 -15 -20 -33 3 -15 21
-23 23 -64 17 -41 -6 -47 -11 -52 -37 -4 -16 -5 -30 -3 -32 1 -1 15 -7 31 -14
30 -13 41 -60 11 -48 -9 3 -21 6 -28 6 -6 0 -19 12 -28 28 l-17 27 -1 -38 c0
-25 -5 -40 -15 -44 -22 -8 -45 26 -38 57 5 24 4 24 -31 -9 -38 -37 -40 -37
-50 -5 -5 18 -1 24 24 33 27 9 30 14 25 33 -19 61 -65 74 -110 32 -27 -25 -29
-25 -42 -8 -20 27 -16 75 9 101 42 44 102 26 149 -46 18 -28 34 -51 35 -51 8
0 -11 69 -27 102 -26 50 -24 66 11 122 l30 47 24 -28 c13 -15 29 -45 35 -65z
m-6547 -10 c9 -32 8 -42 -11 -78 -11 -22 -21 -53 -20 -68 0 -20 2 -22 7 -10
14 35 84 98 108 98 38 0 83 -27 90 -54 5 -22 -19 -86 -32 -86 -3 0 -13 9 -23
21 -14 18 -23 20 -64 14 -26 -4 -47 -12 -47 -19 0 -6 -3 -20 -6 -32 -5 -17 0
-22 25 -27 24 -5 31 -12 31 -31 0 -20 -4 -23 -22 -19 -13 3 -33 17 -45 32
l-23 26 0 -37 c0 -44 -15 -56 -40 -33 -14 13 -18 25 -14 44 7 26 6 26 -29 -8
-34 -32 -35 -33 -46 -13 -15 28 -15 28 19 42 34 14 36 20 15 60 -20 39 -61 40
-100 4 -27 -25 -29 -25 -42 -8 -33 45 2 124 56 124 41 0 72 -21 109 -75 33
-49 34 -49 27 -16 -4 18 -16 52 -26 75 -25 55 -24 64 12 121 l31 49 24 -29
c14 -17 29 -47 36 -67z m71 -410 c4 -27 -2 -41 -32 -78 -69 -85 -67 -79 -19
-68 24 6 51 19 61 30 17 20 17 20 17 0 0 -11 3 -29 7 -39 6 -15 4 -16 -8 -6
-12 9 -34 7 -107 -9 -51 -12 -95 -19 -98 -15 -4 3 11 28 33 54 22 26 52 64 66
84 l27 36 -62 -14 c-38 -8 -70 -22 -80 -35 -17 -19 -18 -19 -18 -2 0 11 -3 30
-7 44 -6 23 -5 24 10 9 15 -15 22 -15 94 1 43 10 82 25 88 34 13 20 22 12 28
-26z m6415 -77 c34 -24 59 -47 57 -51 -3 -5 -38 -14 -78 -20 -39 -7 -83 -17
-96 -21 -23 -9 -23 -8 -16 28 6 37 25 70 25 45 0 -7 11 -10 33 -6 61 11 62 14
23 41 -31 20 -40 23 -47 12 -6 -10 -9 -7 -9 12 0 35 8 41 29 20 9 -9 45 -36
79 -60z m-15 -172 c82 -88 -52 -187 -138 -101 -16 16 -25 36 -25 56 1 84 101
112 163 45z m-6433 -11 l113 -11 -89 -86 c-98 -95 -94 -94 -119 -11 -7 21 -5
23 6 13 11 -9 18 -8 31 1 15 11 16 18 6 49 -12 40 -40 50 -56 21 -8 -14 -11
-11 -21 16 -14 42 -14 45 3 31 7 -6 64 -16 126 -23z m6260 -132 c0 -20 8 -27
47 -40 58 -20 73 -20 73 0 0 8 5 12 10 9 16 -10 12 -61 -6 -76 -13 -10 -27 -9
-82 9 -49 16 -68 19 -73 10 -5 -8 -12 -2 -19 17 -6 17 -19 38 -27 48 -21 23
-12 30 22 17 23 -9 28 -8 32 10 7 28 23 25 23 -4z m-6092 -65 c26 -64 28 -98
5 -123 -17 -19 -58 -24 -68 -8 -12 19 -25 9 -54 -42 l-30 -52 -10 28 c-14 36
-15 32 20 88 16 28 29 51 27 53 -2 2 -20 -4 -41 -12 -25 -10 -36 -20 -33 -29
3 -8 3 -14 0 -14 -4 0 -44 86 -44 95 0 2 9 1 20 -2 29 -8 162 48 168 70 6 24
14 14 40 -52z m6114 -91 c61 -23 61 -23 53 -10 -3 6 -2 10 4 10 5 0 13 -10 17
-22 5 -16 1 -27 -15 -39 -13 -11 -21 -29 -21 -47 0 -64 -62 -67 -80 -4 -5 20
-10 45 -10 54 0 18 -33 33 -50 23 -14 -9 -12 -36 3 -34 27 3 37 -2 37 -21 0
-32 -30 -37 -52 -10 -21 26 -18 57 8 98 18 27 39 28 106 2z m-6042 -80 c22
-43 25 -54 11 -45 -11 6 -72 -65 -65 -77 8 -13 92 -10 96 4 3 7 19 -15 37 -48
l32 -59 -25 -65 c-15 -36 -26 -69 -26 -73 0 -18 79 37 82 57 3 18 6 16 22 -13
17 -31 17 -33 1 -27 -11 4 -45 -10 -96 -39 -43 -25 -82 -45 -88 -45 -5 0 8 44
29 98 21 53 36 98 35 100 -2 2 -28 -11 -59 -28 -41 -23 -56 -38 -56 -53 0 -21
-1 -21 -20 3 -23 30 -25 41 -6 34 15 -6 149 67 162 88 12 18 -22 35 -87 41
-66 7 -114 -9 -122 -40 -3 -12 -11 -3 -25 30 -25 55 -27 66 -11 50 19 -19 70
13 112 70 20 28 37 57 37 64 0 22 9 14 30 -27z m5960 -95 c27 -14 59 -25 70
-25 20 0 20 0 -1 -42 -12 -24 -24 -37 -27 -30 -3 11 -111 72 -127 72 -3 0 -5
-10 -5 -23 0 -19 11 -29 52 -48 28 -13 58 -23 65 -21 18 4 16 -8 -9 -48 -12
-21 -23 -30 -25 -22 -7 19 -121 74 -128 61 -4 -5 -4 -16 -1 -24 7 -18 104 -68
116 -60 14 9 12 1 -7 -40 -16 -33 -33 -46 -33 -25 0 14 -119 72 -136 66 -10
-4 -9 3 3 29 9 19 20 35 25 35 4 0 8 11 8 24 0 24 23 56 41 56 5 0 9 15 9 33
0 62 32 71 110 32z m-149 -286 c27 -17 53 -28 59 -24 18 11 11 -43 -8 -57 -9
-7 -22 -26 -27 -43 -8 -22 -18 -31 -37 -33 -35 -4 -52 27 -45 84 3 32 1 44
-10 48 -26 10 -43 6 -43 -9 0 -8 7 -15 15 -15 24 0 31 -31 10 -46 -43 -32 -63
50 -24 100 27 34 52 33 110 -5z m-112 -164 c28 -20 56 -33 60 -30 14 8 20 -17
9 -37 -5 -10 -17 -18 -26 -18 -12 0 -18 -9 -20 -26 -4 -51 -36 -68 -67 -37
-13 12 -16 28 -13 65 5 51 -9 75 -37 64 -21 -8 -19 -23 5 -29 24 -6 26 -29 5
-47 -21 -18 -45 4 -45 42 0 29 46 88 68 88 5 0 33 -16 61 -35z m-5362 -20 c27
-51 27 -50 -1 -68 l-24 -16 1 47 c2 43 0 47 -22 50 -24 4 -24 3 -17 -62 6 -62
5 -68 -19 -92 -20 -20 -32 -24 -53 -20 -30 7 -72 49 -72 72 0 8 -4 14 -10 14
-19 0 -10 16 22 40 l31 23 -8 -24 c-11 -37 -8 -70 9 -87 12 -13 18 -13 30 -2
12 10 15 24 10 66 -9 74 12 106 64 102 32 -3 40 -9 59 -43z m5223 -138 c47
-37 86 -71 88 -77 2 -6 -50 -11 -129 -12 l-132 -3 67 -52 c57 -44 71 -51 88
-42 17 9 18 8 9 -8 -6 -10 -20 -29 -31 -43 -18 -21 -20 -22 -16 -5 7 26 3 31
-81 99 -61 49 -77 57 -99 52 l-26 -7 32 40 32 41 91 0 92 1 -40 35 c-31 27
-46 34 -68 29 l-28 -5 28 37 c27 35 28 35 33 12 4 -14 40 -51 90 -92z m-5111
-8 c33 -40 58 -76 55 -80 -3 -5 -15 -14 -26 -20 -19 -10 -20 -9 -15 11 6 24
-1 50 -14 50 -4 0 -37 -25 -73 -55 -47 -40 -64 -60 -60 -73 3 -9 -10 0 -30 20
-36 38 -47 62 -23 53 7 -3 43 20 81 52 60 50 66 58 52 69 -9 6 -26 10 -36 7
-11 -3 -20 -1 -20 5 0 11 27 31 42 32 4 0 34 -32 67 -71z m111 -194 c-11 -25
-29 -66 -40 -91 -11 -25 -20 -54 -20 -65 0 -28 -21 -22 -53 17 -22 25 -25 34
-13 34 8 0 20 8 25 19 8 14 5 23 -13 41 -27 25 -63 23 -58 -3 4 -23 -6 -21
-29 6 -23 28 -24 36 -1 31 9 -2 55 9 102 25 122 42 124 41 100 -14z m4695 -5
l28 -29 -49 5 c-54 7 -79 -8 -72 -43 4 -19 26 -21 124 -8 45 6 55 4 73 -14 42
-42 21 -116 -39 -141 -16 -7 -30 -20 -30 -28 0 -11 -11 -5 -35 18 -19 18 -33
35 -32 36 2 2 19 -2 39 -8 31 -9 41 -8 62 6 29 19 35 60 10 70 -9 3 -43 -1
-75 -9 -50 -13 -64 -14 -87 -3 -58 28 -54 109 8 141 19 10 34 22 33 27 -5 19
13 10 42 -20z m-4385 -231 c55 -47 55 -47 36 -68 -25 -28 -34 -27 -29 3 3 16
-3 32 -17 46 l-22 22 -23 -28 c-26 -32 -18 -52 14 -35 31 17 26 1 -15 -44 -32
-37 -35 -38 -30 -14 3 14 3 29 -1 33 -9 8 -53 -34 -53 -50 0 -20 39 -36 76
-32 l34 4 -26 -27 -27 -28 -68 57 c-65 53 -86 78 -56 66 19 -7 133 134 120
147 -6 6 -15 4 -23 -6 -20 -24 -30 -18 -24 14 11 52 -15 47 -77 -15 -32 -31
-59 -66 -61 -76 -3 -16 -10 -12 -43 23 -22 23 -33 39 -24 36 11 -3 37 15 79
58 66 67 72 92 17 81 l-31 -6 24 25 24 25 85 -83 c47 -45 111 -103 141 -128z
m4595 161 c0 -18 -6 -26 -23 -28 -13 -2 -25 3 -28 12 -10 26 4 48 28 44 17 -2
23 -10 23 -28z m-357 -173 c3 -12 -4 -20 -17 -24 -12 -3 -21 -11 -21 -18 0
-22 55 -84 74 -85 17 0 15 -5 -15 -36 -28 -29 -35 -32 -38 -18 -5 26 -82 114
-99 114 -9 0 -5 7 11 20 15 12 30 21 34 21 4 0 14 11 21 25 15 28 45 29 50 1z
m-128 -112 c38 -20 38 -28 -2 -60 -32 -25 -33 -26 -13 -41 26 -19 47 -14 63
16 12 25 13 25 10 -9 -2 -23 -12 -40 -30 -54 -24 -18 -30 -19 -59 -7 -35 15
-69 63 -69 98 0 23 40 72 60 72 6 0 24 -7 40 -15z m-192 -55 c9 -15 19 -19 37
-14 28 7 33 -3 10 -20 -13 -9 -10 -18 18 -58 32 -48 51 -59 60 -35 3 6 6 3 6
-8 1 -27 -17 -45 -46 -45 -16 0 -34 15 -59 51 -24 33 -42 48 -51 44 -11 -4
-13 -1 -9 11 3 8 6 33 6 55 0 43 9 49 28 19z m-64 -6 c9 -3 16 -13 16 -20 0
-20 -27 -29 -45 -14 -19 16 -19 0 0 -27 10 -14 22 -20 31 -16 13 5 15 1 10
-15 -8 -23 44 -113 71 -123 12 -4 7 -11 -21 -27 -44 -26 -43 -26 -43 -8 0 23
-63 115 -76 110 -8 -3 -13 13 -14 50 -2 49 0 57 23 75 30 24 27 23 48 15z
m-3574 -30 c40 -27 52 -41 26 -31 -23 9 -108 -130 -96 -154 27 -49 65 -35 114
41 21 33 36 67 32 75 -8 21 7 19 35 -5 20 -16 21 -19 7 -20 -10 0 -35 -27 -58
-60 -59 -87 -92 -98 -153 -49 -38 29 -34 61 14 140 22 38 38 73 34 79 -10 16
3 12 45 -16z m181 -113 c24 -12 28 -23 39 -93 l13 -81 24 39 c14 23 21 48 18
60 -4 20 2 19 78 -18 61 -31 77 -43 64 -47 -10 -4 -34 -41 -53 -84 -30 -65
-34 -81 -23 -93 12 -14 10 -14 -24 -1 -20 9 -45 21 -54 26 -15 9 -16 10 -2 11
10 0 29 31 54 86 32 71 36 87 24 95 -27 17 -42 4 -88 -78 -25 -45 -49 -83 -53
-83 -3 0 -12 33 -18 73 -7 39 -15 88 -19 107 l-7 35 -33 -58 c-19 -34 -31 -66
-28 -78 6 -24 5 -24 -35 1 -29 17 -30 20 -11 20 17 0 32 17 64 71 25 44 39 78
36 90 -3 11 -2 19 1 17 4 -2 19 -10 33 -17z m3301 -38 c9 -10 23 -33 32 -50 9
-18 23 -33 31 -33 8 0 15 -4 15 -9 0 -17 -32 -42 -49 -39 -9 2 -24 -7 -35 -20
-45 -57 -87 6 -48 72 21 35 14 66 -13 66 -18 0 -19 -22 -3 -38 16 -16 -3 -35
-28 -30 -30 5 -28 36 4 68 34 34 71 39 94 13z m-227 -123 c20 -47 44 -91 53
-98 14 -11 14 -14 -8 -30 -14 -9 -29 -17 -35 -17 -5 -1 -22 -9 -37 -19 -24
-16 -29 -16 -55 -2 -69 35 -70 166 -1 166 21 0 22 1 6 35 -6 14 -18 25 -27 25
-9 1 0 9 19 20 19 10 38 15 42 12 3 -4 23 -45 43 -92z m-2760 0 c22 -10 34
-19 28 -19 -9 -1 -13 -22 -13 -73 l0 -72 45 44 c45 44 56 69 33 71 -8 0 -9 2
-2 5 6 3 24 0 40 -6 27 -11 28 -12 9 -22 -11 -6 -55 -45 -97 -86 -77 -75 -78
-76 -79 -47 -1 17 -4 74 -8 128 -3 53 -4 97 -1 96 3 0 23 -9 45 -19z m2579
-81 c36 -28 33 -44 -14 -59 -33 -11 -38 -16 -30 -31 17 -31 51 -34 71 -8 14
18 19 20 19 8 0 -27 -40 -69 -65 -69 -37 0 -55 10 -70 41 -22 42 -19 94 7 119
28 25 48 25 82 -1z m-2322 -15 l77 -25 -11 -31 -11 -30 -12 29 c-12 28 -48 48
-66 37 -10 -6 -22 -64 -15 -71 3 -4 18 4 33 18 18 17 24 19 20 8 -3 -10 -11
-35 -18 -58 -14 -45 -29 -54 -29 -17 0 14 -5 28 -10 31 -11 7 -30 -35 -30 -64
0 -35 79 -32 102 3 12 18 9 -10 -4 -39 -6 -14 -16 -24 -22 -22 -6 2 -42 14
-81 27 -71 23 -102 40 -73 40 19 0 73 141 65 170 -6 25 -7 25 85 -6z m2155
-36 c6 -7 18 -35 28 -63 10 -27 24 -55 32 -61 11 -10 5 -15 -33 -28 -42 -14
-45 -14 -40 0 4 9 -1 41 -11 70 -16 51 -34 67 -48 44 -8 -13 24 -112 39 -122
7 -5 5 -9 -4 -12 -8 -3 -28 -10 -44 -16 -24 -9 -27 -8 -23 4 6 16 -19 104 -34
121 -6 5 -13 5 -20 -2 -14 -14 6 -96 28 -119 13 -12 10 -16 -21 -29 -45 -19
-43 -19 -43 9 0 31 -34 126 -45 126 -4 0 -8 4 -8 10 0 5 17 12 38 16 20 4 47
14 59 22 13 8 30 11 39 8 9 -3 27 3 41 14 29 23 56 26 70 8z m-1966 -22 c30
-9 63 -24 73 -35 24 -26 18 -73 -11 -86 -28 -12 -28 -27 -3 -82 20 -45 17 -49
-23 -34 -16 6 -30 25 -42 58 -25 67 -31 70 -43 24 -8 -35 -7 -43 7 -52 15 -10
15 -10 -1 -5 -9 3 -33 8 -52 12 -37 6 -60 24 -32 24 9 0 19 15 25 38 6 20 17
60 26 87 14 46 13 51 -3 64 -19 15 -24 16 79 -13z m234 -57 c4 -6 13 -8 21 -5
10 4 14 -3 14 -24 0 -37 -16 -47 -24 -14 -10 39 -76 54 -76 17 0 -9 20 -33 45
-55 50 -44 59 -82 25 -113 -15 -13 -29 -16 -62 -11 -24 3 -51 7 -60 8 -19 2
-22 28 -9 62 7 18 9 16 19 -12 15 -43 56 -62 80 -38 16 16 15 19 -25 57 -56
52 -67 73 -52 102 7 12 17 25 23 29 17 12 74 9 81 -3z m1449 -21 c8 -13 18
-40 21 -61 4 -20 14 -41 22 -45 11 -7 10 -12 -7 -27 -16 -15 -25 -17 -38 -9
-13 9 -23 6 -44 -9 -22 -17 -30 -18 -43 -7 -24 20 -18 54 15 85 32 31 37 70
10 70 -10 0 -15 -10 -15 -30 0 -23 -4 -30 -20 -30 -31 0 -31 39 1 64 36 28 79
27 98 -1z m-1306 2 c17 0 32 -4 32 -10 0 -5 -6 -10 -13 -10 -10 0 -18 -26 -25
-82 -15 -106 -15 -106 6 -111 9 -3 1 -5 -18 -5 -37 0 -106 15 -79 17 19 1 25
21 35 113 5 51 3 72 -7 85 -13 15 -12 16 11 10 14 -4 40 -7 58 -7z m166 -20
c66 0 81 -10 72 -46 l-7 -28 -12 25 c-20 39 -43 36 -51 -8 -10 -66 -7 -151 7
-156 6 -3 -8 -6 -33 -6 -25 0 -52 4 -60 9 -13 8 -13 10 1 10 13 0 18 15 22 68
10 102 9 122 -8 122 -8 0 -23 -10 -35 -22 l-20 -22 0 25 c0 34 9 42 44 35 16
-3 52 -6 80 -6z m960 -22 c8 -13 18 -44 21 -71 4 -26 12 -50 17 -53 15 -9 -12
-24 -45 -24 -16 0 -26 4 -23 9 10 16 -16 131 -29 131 -7 0 -15 -6 -18 -13 -6
-17 12 -108 24 -123 6 -8 -1 -13 -22 -18 -48 -9 -65 -8 -53 4 12 12 -2 117
-19 138 -14 17 -6 23 36 25 20 2 39 6 43 10 15 15 54 6 68 -15z m-770 1 c-7
-11 24 -89 36 -89 3 0 16 17 28 38 16 30 19 41 10 50 -9 9 -3 12 27 12 l38 0
-20 -22 c-69 -77 -93 -156 -55 -184 15 -12 8 -13 -48 -13 -49 0 -61 2 -47 10
35 20 7 123 -51 192 -14 16 -12 17 37 17 35 0 50 -4 45 -11z"/>
<path d="M3960 6994 c-8 -16 -16 -32 -18 -35 -1 -4 11 -9 28 -11 34 -5 33 -6
16 41 l-12 33 -14 -28z"/>
<path d="M3044 6904 c-8 -3 -9 -16 -4 -40 10 -44 13 -47 39 -39 32 10 38 45
11 67 -23 19 -27 20 -46 12z"/>
<path d="M2834 6919 c3 -17 6 -35 6 -40 0 -16 39 -9 48 9 15 28 -3 62 -34 62
-24 0 -26 -3 -20 -31z"/>
<path d="M2640 6817 c0 -38 11 -46 40 -27 13 8 11 14 -12 37 l-28 28 0 -38z"/>
<path d="M3446 6669 c-587 -60 -1115 -273 -1568 -630 -122 -97 -376 -349 -472
-469 -206 -258 -382 -581 -493 -905 -162 -474 -197 -1016 -99 -1520 232 -1187
1174 -2118 2366 -2340 328 -61 752 -61 1080 0 892 166 1660 733 2086 1540 147
277 255 610 304 931 27 176 38 536 21 709 -56 577 -254 1081 -610 1550 -97
129 -397 429 -526 526 -419 318 -878 512 -1390 589 -160 24 -549 35 -699 19z
m198 -475 c14 -5 16 -49 16 -384 l0 -378 -67 -7 c-250 -24 -395 -60 -548 -134
-55 -27 -102 -47 -104 -45 -2 2 -5 168 -7 369 -4 427 -4 425 77 469 61 34 243
80 369 95 52 6 109 13 125 15 55 6 123 6 139 0z m411 -21 c209 -29 358 -77
389 -126 24 -37 26 -78 18 -474 l-7 -382 -70 46 c-139 91 -248 130 -505 182
-30 6 -60 15 -66 19 -8 5 -13 127 -18 385 l-7 379 78 -7 c43 -3 128 -13 188
-22z m-542 -964 c81 -16 163 -29 181 -29 19 0 92 14 162 31 110 26 294 48 294
34 0 -3 -46 -26 -102 -53 -104 -49 -168 -93 -168 -116 0 -18 52 -63 170 -148
125 -91 218 -173 207 -184 -18 -19 -123 48 -252 162 -141 124 -184 139 -236
83 -16 -17 -29 -36 -29 -42 0 -18 51 -79 154 -184 72 -74 94 -103 80 -103 -32
0 -78 35 -140 106 -86 100 -142 154 -161 154 -9 0 -63 -47 -121 -105 -84 -85
-110 -105 -133 -105 -16 0 -29 4 -29 10 0 18 60 78 145 146 96 75 103 94 57
145 -28 31 -29 31 -68 19 -57 -18 -101 -47 -178 -118 -81 -75 -103 -90 -145
-102 -23 -6 -31 -5 -31 4 0 17 70 81 135 125 72 49 125 102 125 126 0 11 -13
36 -30 55 -16 19 -29 41 -30 48 0 8 -7 11 -18 8 -11 -4 -38 6 -67 25 -38 24
-45 33 -34 40 18 12 76 5 262 -32z m-601 -311 c16 -20 57 -58 91 -84 179 -134
456 -219 753 -231 235 -10 401 20 570 102 104 50 147 93 197 193 17 34 35 62
39 62 19 0 6 -81 -22 -138 -56 -110 -200 -224 -359 -282 -187 -69 -394 -77
-662 -26 -282 53 -451 138 -587 294 -59 69 -77 105 -86 177 l-6 50 21 -40 c12
-22 35 -57 51 -77z m68 -337 c47 -27 135 -73 195 -104 162 -81 161 -80 78
-100 -37 -9 -166 -33 -286 -54 -190 -32 -221 -35 -240 -23 -59 36 -163 32
-445 -21 -90 -17 -166 -28 -170 -25 -12 13 29 37 323 188 268 138 345 175 395
192 26 9 63 -4 150 -53z m1600 -7 c29 -9 123 -48 209 -88 86 -40 165 -76 175
-80 10 -3 17 -8 15 -10 -2 -2 -103 -25 -224 -50 -121 -26 -225 -49 -231 -51
-7 -2 -28 5 -48 16 -20 10 -53 19 -74 19 -39 0 -454 -77 -552 -103 -55 -14
-85 -13 -74 4 8 14 147 82 327 160 89 39 209 95 266 126 57 30 115 59 130 63
14 5 26 9 27 9 0 1 24 -6 54 -15z m-895 -363 c440 -220 825 -429 825 -449 0
-6 -3199 -5 -3322 1 -46 2 -41 5 333 202 209 110 397 206 417 213 20 7 107 24
192 38 85 14 221 36 302 50 184 30 228 30 277 2 37 -21 38 -21 127 -5 49 10
141 24 204 32 63 9 158 26 210 39 52 13 104 25 115 25 12 1 156 -66 320 -148z
m1981 -136 c324 -152 600 -284 614 -295 25 -19 20 -20 -705 -22 -401 -2 -773
-3 -826 -3 l-96 0 -169 83 c-173 86 -574 299 -608 325 -20 14 -20 15 0 20 52
17 499 107 527 107 21 0 36 -7 45 -20 20 -33 108 -26 305 24 202 52 207 53
273 55 48 1 96 -20 640 -274z m-4003 -539 c27 -8 49 -10 53 -5 13 22 24 5 24
-41 0 -50 -13 -67 -25 -30 -9 29 -54 60 -87 60 -41 0 -84 -45 -93 -98 -9 -56
11 -138 38 -157 35 -24 91 -19 127 12 27 22 32 23 29 8 -12 -57 -125 -82 -198
-43 -125 65 -100 256 38 298 37 12 43 11 94 -4z m360 -8 c-20 -10 -23 -19 -23
-70 l0 -58 50 0 50 0 0 54 c0 45 -4 58 -22 70 -21 15 -18 16 57 16 75 0 78 -1
57 -16 -21 -14 -22 -22 -22 -137 0 -67 4 -127 8 -133 4 -7 16 -14 27 -17 11
-2 -20 -5 -70 -5 -49 0 -81 3 -70 5 29 7 35 21 35 81 l0 52 -50 0 -50 0 0 -60
c0 -54 3 -62 23 -70 16 -6 -2 -9 -63 -9 -61 0 -79 3 -62 9 21 9 22 14 22 143
0 129 -1 134 -22 145 -19 9 -6 11 62 11 68 0 81 -2 63 -11z m365 -94 c20 -13
22 -24 22 -94 0 -67 3 -79 18 -82 14 -3 12 -7 -10 -22 -26 -17 -30 -17 -52 -2
-22 14 -27 14 -55 0 -40 -20 -71 -5 -71 36 0 31 27 58 80 80 33 14 41 48 15
70 -20 17 -36 3 -29 -25 4 -17 0 -26 -14 -34 -28 -15 -57 8 -48 37 15 46 100
67 144 36z m229 -6 c20 -19 23 -31 23 -94 0 -49 4 -74 13 -77 15 -6 0 -22 -29
-31 -14 -4 -28 -1 -38 9 -14 14 -18 14 -46 0 -22 -11 -35 -13 -49 -6 -47 25
-27 78 43 116 31 17 36 24 34 50 -2 22 -8 30 -23 30 -16 0 -19 -6 -17 -29 4
-34 -14 -49 -40 -35 -23 12 -23 41 0 61 39 34 96 37 129 6z m532 -4 c17 -21
21 -41 21 -95 0 -48 4 -69 13 -69 13 -1 -30 -40 -43 -40 -5 0 -16 7 -24 15
-14 14 -18 14 -46 0 -29 -15 -34 -15 -56 0 -13 8 -24 24 -24 34 0 23 41 65 81
81 26 11 30 18 27 44 -2 23 -8 31 -23 31 -16 0 -19 -6 -17 -31 3 -35 -20 -53
-44 -33 -19 16 -17 43 4 61 42 37 103 38 131 2z m426 4 c45 -39 50 -133 10
-178 -40 -44 -123 -32 -150 21 -29 54 -11 143 32 168 31 18 80 12 108 -11z
m543 6 c20 -13 22 -24 22 -94 0 -67 3 -79 18 -82 14 -3 12 -7 -10 -22 -26 -17
-30 -17 -52 -2 -22 14 -27 14 -55 0 -56 -28 -93 20 -57 72 8 11 33 29 55 39
44 19 55 51 26 75 -20 17 -36 3 -29 -25 8 -32 -27 -53 -50 -29 -19 19 -20 25
-3 46 31 39 96 50 135 22z m1279 -6 c20 -19 23 -31 23 -95 0 -42 4 -73 10 -73
19 0 10 -17 -15 -28 -32 -15 -31 -15 -49 3 -14 14 -18 14 -46 0 -29 -15 -34
-15 -56 0 -13 8 -24 24 -24 34 0 21 57 76 90 86 29 9 25 70 -5 70 -16 0 -19
-6 -17 -31 3 -35 -20 -53 -44 -33 -19 16 -17 43 4 61 39 34 96 37 129 6z
m-2597 -48 c12 -33 24 -60 25 -60 1 0 13 27 25 60 l22 60 46 0 c36 0 43 -3 34
-12 -7 -7 -12 -43 -12 -93 0 -50 5 -86 12 -93 9 -9 -1 -12 -47 -11 -33 0 -54
3 -47 6 8 3 12 27 12 71 l-1 67 -30 -72 c-17 -40 -35 -73 -39 -73 -5 0 -21 33
-37 73 l-28 72 -3 -64 c-2 -45 1 -67 10 -72 8 -6 -2 -9 -27 -9 -32 1 -36 3
-22 11 14 8 17 25 17 94 0 69 -3 86 -17 94 -14 8 -6 10 33 11 l52 0 22 -60z
m599 28 c0 -30 -1 -31 -9 -10 -6 15 -18 22 -35 22 -25 0 -25 -1 -25 -85 0 -69
3 -86 18 -94 13 -8 1 -10 -48 -11 -45 0 -60 3 -50 10 11 7 16 33 19 95 l3 85
-26 0 c-15 0 -29 -7 -32 -15 -9 -24 -24 -17 -24 10 l0 25 105 0 105 0 -1 -32z
m413 15 c22 -19 23 -46 4 -62 -12 -10 -10 -16 10 -36 25 -25 29 -42 16 -61
-16 -24 -55 -34 -134 -33 -46 0 -77 3 -70 6 8 3 12 33 12 98 0 65 -4 95 -12
98 -7 3 25 6 71 6 65 1 89 -3 103 -16z m567 -15 c0 -31 -1 -32 -11 -10 -7 13
-20 22 -35 22 -22 0 -23 -2 -23 -89 0 -62 4 -91 13 -94 6 -3 -15 -5 -48 -5
-33 0 -54 2 -47 5 8 3 12 32 12 94 0 87 -1 89 -23 89 -15 0 -28 -9 -35 -22
-10 -22 -11 -21 -11 10 l-1 32 105 0 105 0 -1 -32z m124 25 c-8 -2 -13 -22
-13 -44 0 -35 3 -39 24 -39 31 0 78 -18 88 -33 15 -23 8 -56 -14 -71 -29 -20
-200 -24 -180 -4 17 17 16 185 0 191 -7 3 14 5 47 5 33 0 54 -2 48 -5z m209
-5 c-7 -7 -12 -43 -12 -93 0 -50 5 -86 12 -93 9 -9 -1 -12 -47 -11 -33 0 -54
3 -47 6 8 3 12 33 12 98 0 65 -4 95 -12 98 -7 3 14 6 47 6 46 1 56 -2 47 -11z
m141 5 c-8 -2 -13 -22 -13 -44 0 -35 3 -39 25 -39 22 0 25 4 25 39 0 22 -5 42
-12 44 -7 3 14 6 47 6 46 1 56 -2 47 -11 -7 -7 -12 -43 -12 -93 0 -50 5 -86
12 -93 9 -9 -1 -12 -47 -11 -33 0 -54 3 -47 6 7 3 12 23 12 49 0 40 -2 44 -25
44 -23 0 -25 -4 -25 -44 0 -26 5 -46 13 -49 6 -3 -15 -5 -48 -5 -33 0 -54 2
-47 5 8 3 12 33 12 98 0 65 -4 95 -12 98 -7 3 14 5 47 5 33 0 54 -2 48 -5z
m350 0 c-16 -6 -18 -193 -3 -193 6 0 10 -17 10 -37 -1 -37 -1 -38 -14 -14 -17
31 -38 39 -96 40 -49 1 -90 -20 -90 -45 0 -8 -4 -12 -10 -9 -18 11 -11 59 9
72 35 22 58 174 29 186 -7 3 30 5 82 5 52 0 89 -2 83 -5z m447 -24 c0 -17 -4
-28 -10 -24 -5 3 -10 13 -10 21 0 10 -12 14 -40 14 l-40 0 0 -85 c0 -69 3 -86
18 -94 13 -8 2 -10 -46 -11 -58 0 -62 1 -48 16 12 11 16 35 16 89 0 54 -4 78
-16 89 -14 15 -7 16 80 16 l96 0 0 -31z m123 24 c-7 -2 -13 -22 -13 -43 0 -36
1 -38 41 -43 72 -10 105 -68 57 -101 -29 -20 -200 -24 -180 -4 7 7 12 43 12
93 0 50 -5 86 -12 93 -9 9 1 12 48 11 32 0 53 -3 47 -6z m209 -5 c-7 -7 -12
-43 -12 -93 0 -50 5 -86 12 -93 9 -9 -1 -12 -47 -11 -33 0 -54 3 -47 6 8 3 12
33 12 98 0 65 -4 95 -12 98 -7 3 14 6 47 6 46 1 56 -2 47 -11z m-4134 -159 c4
-31 -20 -53 -46 -44 -44 13 -30 78 16 73 21 -2 28 -9 30 -29z m1010 -331 c-3
-7 -18 -14 -34 -16 -47 -5 -54 -24 -54 -149 l0 -113 111 0 111 0 -4 119 c-1
66 -6 123 -10 126 -4 4 -22 10 -39 14 -18 4 -34 12 -37 19 -3 9 36 12 163 12
127 0 166 -3 163 -12 -3 -7 -19 -15 -37 -19 -17 -4 -35 -10 -39 -14 -4 -3 -8
-124 -10 -267 -3 -291 0 -308 58 -308 17 0 30 -4 30 -10 0 -6 -62 -10 -165
-10 -103 0 -165 4 -165 10 0 6 13 10 29 10 51 0 61 28 61 162 l0 118 -110 0
-110 0 0 -122 c0 -135 9 -158 62 -158 15 0 28 -4 28 -10 0 -6 -62 -10 -165
-10 -103 0 -165 4 -165 10 0 6 13 10 29 10 54 0 56 9 56 295 0 286 -2 295 -56
295 -19 0 -29 5 -29 15 0 13 25 15 166 15 128 0 165 -3 162 -12z m792 -185
c46 -109 86 -202 90 -206 4 -4 44 84 90 197 l84 206 129 0 c98 0 128 -3 125
-12 -3 -7 -19 -14 -37 -16 -23 -2 -35 -10 -42 -28 -5 -14 -9 -137 -9 -272 0
-275 4 -292 61 -292 16 0 29 -4 29 -10 0 -6 -62 -10 -165 -10 -103 0 -165 4
-165 10 0 6 13 10 30 10 57 0 61 18 58 293 l-3 245 -115 -276 c-63 -151 -119
-277 -125 -279 -5 -1 -52 97 -104 220 -52 122 -105 245 -117 272 l-23 50 0
-242 c-1 -230 0 -244 19 -263 11 -11 31 -20 45 -20 14 0 25 -4 25 -10 0 -6
-43 -10 -110 -10 -67 0 -110 4 -110 10 0 6 9 10 20 10 12 0 32 11 46 25 l25
25 -3 259 c-2 143 -6 263 -10 266 -4 4 -22 10 -39 14 -18 4 -34 12 -37 19 -3
9 28 12 126 12 l129 0 83 -197z m905 182 c0 -5 -13 -11 -28 -13 -16 -2 -30 -9
-33 -17 -3 -7 32 -81 77 -165 l83 -151 69 136 c80 160 83 188 25 193 -25 2
-38 8 -38 18 0 11 20 14 105 14 113 0 133 -11 73 -40 -27 -13 -51 -53 -169
-284 -75 -147 -147 -279 -160 -292 -48 -52 -141 -55 -179 -7 -40 51 -16 123
40 123 33 0 45 -13 57 -60 5 -19 16 -36 25 -38 19 -4 57 34 64 63 6 23 -212
433 -254 478 -14 15 -36 27 -49 27 -14 0 -23 6 -23 15 0 13 22 15 158 13 96
-2 157 -7 157 -13z m-1473 -1331 c3 -279 4 -296 22 -310 11 -8 30 -14 43 -14
13 0 23 -4 23 -10 0 -6 -60 -10 -160 -10 -100 0 -160 4 -160 10 0 6 13 10 28
10 16 0 37 6 48 14 18 13 19 30 22 228 3 252 0 265 -66 260 -23 -2 -42 0 -42
5 0 8 214 111 232 112 4 1 8 -132 10 -295z m446 280 c47 -19 88 -58 115 -109
18 -33 22 -57 22 -140 0 -89 -3 -107 -29 -162 -53 -117 -173 -203 -304 -221
-77 -11 -76 1 0 32 93 38 137 81 169 167 20 52 17 55 -27 38 -65 -24 -160 25
-190 98 -24 56 -18 143 14 204 23 45 37 59 81 82 62 31 96 34 149 11z m479 -9
c90 -45 128 -128 121 -264 -3 -67 -10 -99 -32 -143 -56 -119 -179 -204 -309
-215 -70 -6 -69 4 5 31 79 29 123 68 159 141 17 36 30 67 27 70 -2 3 -20 0
-39 -5 -139 -41 -249 113 -194 271 19 54 58 96 110 120 54 25 92 24 152 -6z
m593 16 c0 -4 -26 -18 -57 -29 -95 -35 -156 -99 -183 -193 -8 -27 -7 -27 22
-17 42 15 111 5 148 -22 85 -61 95 -228 18 -316 -42 -48 -83 -67 -143 -67 -78
0 -139 42 -181 123 -26 52 -31 183 -9 251 33 103 103 188 192 233 66 33 193
58 193 37z"/>
<path d="M3910 5186 c-100 -38 -130 -53 -130 -67 0 -22 33 -20 69 5 20 14 66
42 102 61 78 42 69 42 -41 1z"/>
<path d="M3391 5191 c-10 -7 -1 -15 35 -31 119 -54 174 -64 174 -32 0 26 -47
49 -121 61 -77 13 -71 13 -88 2z"/>
<path d="M2314 3294 c-12 -18 -14 -28 -6 -36 18 -18 42 -1 42 32 0 37 -14 39
-36 4z"/>
<path d="M2547 3302 c-23 -26 -22 -52 3 -52 16 0 20 7 20 35 0 40 -1 41 -23
17z"/>
<path d="M3077 3302 c-23 -26 -22 -52 3 -52 16 0 20 7 20 35 0 40 -1 41 -23
17z"/>
<path d="M3496 3395 c-3 -9 -6 -47 -6 -85 0 -49 4 -71 15 -80 27 -23 36 2 33
91 -2 68 -6 84 -19 87 -9 2 -19 -4 -23 -13z"/>
<path d="M4044 3294 c-12 -18 -14 -28 -6 -36 18 -18 42 -1 42 32 0 37 -14 39
-36 4z"/>
<path d="M5327 3302 c-23 -26 -22 -52 3 -52 16 0 20 7 20 35 0 40 -1 41 -23
17z"/>
<path d="M3720 3364 c0 -28 4 -35 16 -32 40 8 44 68 4 68 -16 0 -20 -6 -20
-36z"/>
<path d="M3720 3270 c0 -37 2 -41 21 -38 30 4 47 33 33 56 -6 9 -21 18 -33 20
-19 3 -21 -1 -21 -38z"/>
<path d="M4490 3269 c0 -36 2 -40 23 -37 39 5 31 78 -9 78 -10 0 -14 -13 -14
-41z"/>
<path d="M5070 3350 c0 -28 -7 -66 -14 -85 l-15 -35 40 0 39 0 0 85 c0 84 0
85 -25 85 -23 0 -25 -3 -25 -50z"/>
<path d="M5760 3269 c0 -36 2 -40 23 -37 39 5 31 78 -9 78 -10 0 -14 -13 -14
-41z"/>
<path d="M3418 1818 c-21 -38 -16 -204 7 -253 21 -42 40 -51 82 -40 l26 6 -5
108 c-7 131 -31 201 -72 201 -16 0 -30 -9 -38 -22z"/>
<path d="M3879 1818 c-7 -14 -12 -59 -12 -113 2 -142 35 -201 103 -180 22 7
22 11 18 119 -5 132 -25 189 -70 194 -20 2 -30 -3 -39 -20z"/>
<path d="M4361 1579 c-23 -9 -23 -11 -19 -117 7 -151 36 -214 89 -197 26 9 34
45 33 147 -2 129 -40 190 -103 167z"/>
<path d="M2118 6524 c-12 -11 15 -55 31 -52 25 5 21 52 -4 56 -12 2 -24 0 -27
-4z"/>
<path d="M1845 6357 c-13 -51 14 -74 39 -34 8 13 6 22 -11 38 l-22 22 -6 -26z"/>
<path d="M1671 6307 c-10 -13 -8 -23 13 -60 14 -24 26 -52 26 -61 0 -16 3 -15
30 4 34 24 33 30 -22 94 -30 34 -35 36 -47 23z"/>
<path d="M1375 5930 c-4 -7 2 -22 14 -34 19 -18 23 -19 31 -6 6 8 9 22 7 30
-3 18 -42 26 -52 10z"/>
<path d="M1162 5678 c2 -22 9 -34 21 -36 25 -5 32 25 12 48 -26 29 -37 25 -33
-12z"/>
<path d="M6508 5504 c-33 -18 -34 -24 -8 -52 23 -25 40 -28 58 -10 21 21 8 79
-17 78 -4 -1 -18 -8 -33 -16z"/>
<path d="M6428 5454 c-32 -17 -35 -30 -12 -62 31 -45 87 -9 69 44 -12 34 -23
37 -57 18z"/>
<path d="M946 5505 c-7 -19 32 -41 46 -27 15 15 2 42 -21 42 -10 0 -21 -7 -25
-15z"/>
<path d="M1015 5473 c-16 -16 -16 -17 1 -30 25 -18 42 -16 49 7 12 39 -20 54
-50 23z"/>
<path d="M856 5355 c-22 -22 -17 -35 24 -62 38 -27 72 -29 90 -8 15 19 8 40
-22 59 -39 25 -73 29 -92 11z"/>
<path d="M6718 5133 c-39 -16 -47 -30 -26 -51 30 -30 90 10 72 47 -8 18 -11
18 -46 4z"/>
<path d="M772 5028 c2 -25 8 -34 26 -36 33 -5 31 41 -4 56 -25 12 -25 11 -22
-20z"/>
<path d="M620 4669 c0 -23 22 -49 40 -49 30 0 26 38 -6 50 -32 12 -34 12 -34
-1z"/>
<path d="M580 4500 c0 -25 27 -51 46 -43 25 9 12 46 -18 54 -23 6 -28 4 -28
-11z"/>
<path d="M6847 2764 c-16 -16 -5 -33 33 -48 51 -20 110 -21 110 -2 0 22 -127
66 -143 50z"/>
<path d="M511 2743 c0 -5 4 -16 8 -26 6 -16 9 -16 31 8 l23 25 -31 0 c-18 0
-32 -3 -31 -7z"/>
<path d="M662 2541 l-43 -17 19 -24 c17 -22 23 -23 46 -12 20 9 26 19 26 42 0
16 -1 30 -2 29 -2 0 -22 -8 -46 -18z"/>
<path d="M6800 2421 c0 -4 6 -16 14 -27 11 -14 17 -16 26 -7 7 6 10 16 6 21
-7 12 -46 23 -46 13z"/>
<path d="M6569 1948 c9 -24 41 -38 41 -17 0 12 -28 38 -42 39 -4 0 -4 -10 1
-22z"/>
<path d="M6455 1788 c10 -33 23 -44 36 -31 13 13 5 29 -23 44 -18 10 -19 8
-13 -13z"/>
<path d="M1258 1493 c-21 -5 -23 -26 -5 -42 11 -8 16 -5 25 15 18 37 17 37
-20 27z"/>
<path d="M5700 1107 c0 -7 6 -21 13 -31 12 -16 14 -16 26 -2 11 13 11 19 1 31
-15 18 -40 20 -40 2z"/>
<path d="M5390 795 c0 -16 6 -25 15 -25 16 0 19 9 9 34 -9 25 -24 19 -24 -9z"/>
<path d="M5105 740 c-4 -6 4 -32 17 -58 38 -77 78 -53 41 24 -18 39 -45 55
-58 34z"/>
<path d="M4950 661 c0 -33 6 -37 30 -21 11 7 12 14 4 27 -18 30 -34 27 -34 -6z"/>
<path d="M2861 563 c-15 -53 -14 -55 16 -51 38 4 57 53 28 74 -28 21 -33 18
-44 -23z"/>
<path d="M4517 463 c-13 -12 -7 -43 8 -43 8 0 15 6 15 13 0 18 -15 38 -23 30z"/>
</g>
</svg>